<?xml version="1.0" standalone="no"?>
<!DOCTYPE svg PUBLIC "-//W3C//DTD SVG 20010904//EN"
 "http://www.w3.org/TR/2001/REC-SVG-20010904/DTD/svg10.dtd">
<svg version="1.0" xmlns="http://www.w3.org/2000/svg"
 width="512.000000pt" height="512.000000pt" viewBox="0 0 512.000000 512.000000"
 preserveAspectRatio="xMidYMid meet">

<g transform="translate(0.000000,512.000000) scale(0.100000,-0.100000)"
fill="#fff" stroke="none">
<path d="M1202 5105 c-106 -24 -208 -81 -287 -160 -39 -38 -81 -91 -94 -116
-24 -44 -27 -47 -75 -52 -71 -7 -152 -40 -210 -84 -102 -78 -164 -210 -187
-395 -21 -172 7 -522 59 -733 11 -44 23 -100 26 -123 17 -113 108 -223 217
-262 35 -13 37 -15 44 -73 3 -33 18 -97 32 -141 67 -214 195 -383 386 -510 48
-32 87 -62 87 -67 0 -15 -31 -24 -315 -84 -148 -31 -303 -70 -343 -86 -202
-80 -367 -238 -461 -441 -78 -169 -76 -139 -76 -908 0 -683 0 -685 22 -725 25
-47 74 -95 123 -121 34 -18 107 -19 2047 -22 l2012 -2 26 23 c39 33 39 91 1
123 l-27 24 -840 0 c-913 0 -876 -2 -931 56 -36 39 -48 74 -48 145 l0 59 1280
0 1280 0 0 -60 c0 -71 -16 -114 -56 -152 -46 -42 -75 -48 -245 -48 -156 0
-160 -1 -184 -25 -46 -45 -24 -125 40 -141 13 -3 100 -4 192 -2 159 3 171 5
224 31 67 33 142 109 170 174 30 68 38 217 15 278 -29 74 -96 115 -189 115
-23 0 -36 4 -32 10 9 14 145 1449 145 1526 0 74 -34 150 -88 194 -75 62 -25
60 -1272 60 -1243 0 -1197 2 -1269 -58 l-35 -29 -80 18 c-45 9 -116 25 -158
34 -99 22 -102 37 -17 90 232 143 410 412 436 658 l6 57 63 30 c40 19 79 49
108 81 43 47 86 137 86 179 0 10 11 65 25 122 46 195 59 317 60 553 0 201 -2
227 -23 300 -32 109 -76 187 -138 244 -51 47 -53 50 -44 82 23 79 -5 162 -68
201 -58 36 -116 30 -198 -19 -93 -55 -135 -67 -229 -67 -133 1 -241 37 -394
133 -67 43 -137 72 -231 97 -80 22 -290 27 -368 9z m1071 -1085 c58 -52 93
-123 111 -230 16 -94 35 -120 90 -120 46 -1 110 -33 136 -71 31 -43 39 -132
16 -177 -24 -46 -77 -82 -135 -91 -80 -13 -97 -35 -105 -136 -28 -343 -255
-613 -585 -696 -70 -18 -105 -21 -210 -17 -108 4 -139 9 -214 35 -294 103
-485 346 -517 660 -6 52 -14 102 -20 112 -10 20 -47 36 -100 45 -80 13 -140
83 -140 162 0 51 33 114 73 141 18 13 55 26 82 30 71 9 90 32 104 129 13 90
43 157 84 188 44 33 169 28 320 -12 302 -81 614 -60 869 57 34 16 70 30 79 30
9 1 37 -17 62 -39z m-703 -1716 c57 -4 120 -1 189 10 58 9 108 16 113 16 10 0
-1 -87 -17 -126 -47 -115 -191 -180 -311 -140 -100 33 -174 130 -174 227 l0
46 58 -13 c31 -7 95 -16 142 -20z m-326 -203 c79 -154 271 -251 441 -222 117
21 203 71 274 161 23 28 49 74 58 101 13 37 23 49 38 49 22 -1 235 -46 240
-52 2 -2 36 -342 75 -756 39 -414 73 -759 76 -766 4 -10 -10 -15 -59 -18 -73
-4 -124 -34 -154 -91 -24 -43 -23 -213 1 -276 9 -24 16 -45 16 -47 0 -2 -457
-4 -1015 -4 -1002 0 -1015 0 -1035 20 -20 20 -20 33 -20 673 0 728 -2 707 70
852 46 93 103 165 180 227 117 94 173 115 505 186 265 57 270 58 276 38 3 -12
18 -45 33 -75z"/>
</g>
</svg>
